<?xml version="1.0" standalone="no"?>
<!DOCTYPE svg PUBLIC "-//W3C//DTD SVG 20010904//EN"
 "http://www.w3.org/TR/2001/REC-SVG-20010904/DTD/svg10.dtd">
<svg version="1.0" xmlns="http://www.w3.org/2000/svg"
 width="121.000000pt" height="121.000000pt" viewBox="0 0 121.000000 121.000000"
 preserveAspectRatio="xMidYMid meet">
<metadata>
Created by potrace 1.11, written by Peter Selinger 2001-2013
</metadata>
<g transform="translate(0.000000,121.000000) scale(0.100000,-0.100000)"
fill="#000000" stroke="none">
<path d="M491 1191 c-8 -5 -29 -7 -47 -4 -23 4 -43 -1 -67 -16 -42 -26 -127
-123 -127 -145 0 -9 -10 -38 -23 -64 -19 -38 -23 -62 -22 -127 2 -79 12 -198
20 -222 7 -20 25 -15 25 7 0 27 21 70 31 64 5 -3 11 7 15 21 4 18 11 24 23 21
9 -3 36 -10 61 -16 25 -6 53 -13 63 -16 9 -3 17 -1 17 4 0 15 -125 45 -160 38
-26 -5 -31 -3 -26 12 2 9 8 50 11 90 4 45 13 79 23 88 24 25 90 64 107 64 9 0
26 6 38 14 30 19 50 21 127 12 60 -8 68 -12 109 -55 74 -79 74 -78 59 -84 -8
-4 -6 -6 5 -6 15 -1 17 -6 10 -23 -4 -13 -7 -35 -7 -50 1 -19 -4 -28 -15 -29
-63 -3 -140 -28 -151 -49 -6 -11 -17 -20 -24 -20 -12 0 -44 -112 -38 -132 1
-5 -2 -8 -6 -8 -5 0 -7 -13 -4 -29 5 -38 -27 -59 -66 -42 -13 7 -27 9 -30 7
-9 -10 67 -36 105 -36 57 0 81 -9 87 -33 3 -12 3 -23 1 -25 -2 -3 -33 -10 -67
-17 l-63 -13 50 0 c79 1 89 0 78 -15 -5 -6 -10 -22 -11 -33 0 -17 4 -21 19
-17 10 3 16 10 13 15 -3 5 4 20 17 34 12 13 17 24 11 24 -7 0 -12 11 -12 25 0
14 5 25 11 25 6 0 8 7 5 16 -3 8 -2 12 4 9 37 -23 -40 85 -79 110 -31 20 -39
39 -21 50 6 3 10 21 10 39 0 38 8 46 65 67 51 19 65 15 95 -26 14 -19 34 -35
45 -37 11 -2 19 -9 17 -16 -1 -6 2 -12 8 -12 15 0 12 -38 -4 -68 -35 -65 -46
-104 -46 -155 0 -78 -33 -160 -79 -194 -20 -15 -42 -35 -49 -45 -7 -10 -20
-18 -28 -18 -8 0 -14 -4 -14 -9 0 -13 -56 -24 -110 -22 -37 1 -52 8 -84 39
l-40 37 25 -35 c14 -19 29 -47 32 -62 7 -25 9 -26 39 -17 18 5 34 5 37 1 13
-17 58 -35 99 -39 35 -4 51 0 83 21 44 30 48 23 17 -30 -21 -35 -21 -36 -2
-26 11 6 52 44 91 85 76 80 113 154 113 224 0 20 5 51 11 68 13 34 5 85 -12
85 -6 0 -7 -13 -4 -33 4 -20 0 -56 -9 -89 -9 -30 -14 -64 -10 -74 4 -14 3 -16
-4 -5 -8 11 -14 5 -27 -23 -16 -33 -20 -36 -32 -23 -13 13 -13 21 1 68 33 113
42 166 33 187 -7 16 -5 32 7 59 17 39 18 83 2 94 -5 4 -5 12 -1 19 13 21 44
-60 45 -113 0 -30 6 -54 15 -64 9 -8 17 -14 18 -12 1 2 12 18 24 36 16 22 19
33 10 36 -9 4 -9 6 1 6 6 1 12 8 12 16 0 8 5 15 10 15 6 0 10 5 10 11 0 5 -4
7 -10 4 -14 -9 -12 8 5 41 8 16 12 38 8 49 -3 11 -7 67 -8 125 -4 161 -10 185
-67 242 -27 27 -66 56 -86 65 -20 8 -39 19 -43 24 -3 5 -18 10 -35 13 -16 2
-42 9 -59 16 -92 38 -174 50 -204 31z m465 -573 c-18 -12 -30 10 -16 28 13 15
15 14 21 -3 3 -10 1 -21 -5 -25z m-12 -61 c-10 -28 -24 -19 -24 15 0 29 2 31
15 17 9 -9 13 -23 9 -32z m6 -34 c0 -5 -7 -16 -15 -27 -19 -24 -39 -12 -22 14
11 19 37 28 37 13z m-294 -50 c-7 -7 -26 7 -26 19 0 6 6 6 15 -2 9 -7 13 -15
11 -17z m154 -88 c0 -45 -16 -102 -26 -92 -3 3 -2 37 2 76 7 76 24 87 24 16z"/>
<path d="M631 691 c-14 -4 -26 -12 -29 -19 -4 -14 14 -16 23 -2 3 6 13 10 21
10 8 0 13 -4 10 -9 -4 -5 12 -12 34 -16 22 -4 40 -11 40 -16 0 -5 5 -9 10 -9
6 0 10 11 10 23 0 38 -56 56 -119 38z"/>
<path d="M338 678 c-59 -16 -45 -27 32 -25 55 1 68 4 58 13 -20 19 -50 23 -90
12z"/>
<path d="M350 463 c-28 -44 -36 -63 -26 -63 3 0 11 12 18 28 8 15 22 39 32 55
10 15 15 27 12 27 -4 0 -20 -21 -36 -47z"/>
<path d="M380 380 c0 -13 37 -50 50 -50 6 0 5 8 -2 20 -11 17 -10 22 2 30 11
7 7 10 -17 10 -18 0 -33 -4 -33 -10z"/>
<path d="M570 340 c0 -5 5 -10 11 -10 5 0 7 5 4 10 -3 6 -8 10 -11 10 -2 0 -4
-4 -4 -10z"/>
</g>
</svg>
